<svg width="24" height="24" viewBox="0 0 24 24" fill="none" xmlns="http://www.w3.org/2000/svg">
<g id="icon/vk">
<path id="vector" fill-rule="evenodd" clip-rule="evenodd" d="M21.5411 6.74485C21.6801 6.31549 21.5411 6 20.8794 6H18.6914C18.135 6 17.8786 6.27254 17.7395 6.57307C17.7395 6.57307 16.6268 9.08477 15.0505 10.7163C14.5406 11.1886 14.3087 11.3388 14.0306 11.3388C13.8915 11.3388 13.6902 11.1885 13.6902 10.7592V6.74485C13.6902 6.22962 13.5287 6 13.0651 6H9.62678C9.27911 6 9.07003 6.23913 9.07003 6.46576C9.07003 6.95418 9.85811 7.06682 9.93935 8.44075V11.4247C9.93935 12.0789 9.81177 12.1976 9.5336 12.1976C8.79186 12.1976 6.98756 9.67464 5.91744 6.78777C5.70773 6.22666 5.49738 6 4.93819 6H2.75018C2.12504 6 2 6.27254 2 6.57307C2 7.10977 2.74178 9.77174 5.45387 13.2924C7.26191 15.6967 9.80932 17 12.1274 17C13.5182 17 13.6902 16.7105 13.6902 16.2119V14.3947C13.6902 13.8158 13.822 13.7002 14.2624 13.7002C14.5869 13.7002 15.1433 13.8505 16.4414 15.0098C17.9249 16.3837 18.1695 17 19.004 17H21.192C21.8171 17 22.1297 16.7105 21.9494 16.1393C21.752 15.5699 21.0437 14.7439 20.1039 13.7646C19.5939 13.2065 18.8289 12.6054 18.5971 12.3048C18.2726 11.9185 18.3653 11.7467 18.5971 11.4032C18.5971 11.4032 21.2629 7.92553 21.5411 6.74485Z" fill="#2787F5"/>
</g>
</svg>
